<?xml version="1.0" encoding="utf-8"?>
<!-- Generator: Adobe Illustrator 25.0.0, SVG Export Plug-In . SVG Version: 6.00 Build 0)  -->
<svg version="1.1" id="Layer_1" xmlns="http://www.w3.org/2000/svg" xmlns:xlink="http://www.w3.org/1999/xlink" x="0px" y="0px"
	 viewBox="0 0 201.11 278.62" style="enable-background:new 0 0 201.11 278.62;" xml:space="preserve">
<style type="text/css">
	.st0{fill:#603913;}
	.st1{fill:#FAC99C;}
	.st2{fill:#EFAB88;}
	.st3{fill:#FFFFFF;}
	.st4{fill:#C49A6C;}
	.st5{fill:#8B5E3C;}
	.st6{fill:#F48CA8;}
</style>
<g>
	<g>
		<path class="st0" d="M44.05,146.57c0,0-6.45,90.54,0,94.17c6.45,3.63,114.49,10.72,119.72,4.52c5.23-6.2,12.46-119.92-3.17-136.5
			C144.98,92.19,44.05,146.57,44.05,146.57"/>
		<path class="st1" d="M163.77,245.26c-43.99,5.64-41.26-53.71-41.26-53.71c-9.23,6.18-19.75,8.54-25.91,9.44
			c-6.16-0.9-16.69-3.26-25.91-9.44c0,0,2.73,59.36-41.27,53.71c-44-5.64-44.72,30.48-24.77,55.1h86.68h10.53h86.68
			C208.5,275.74,207.77,239.62,163.77,245.26"/>
		<path class="st1" d="M161.08,119.07c0,45.54-27.4,82.46-61.19,82.46c-33.8,0-61.19-36.92-61.19-82.46S66.09,36.6,99.88,36.6
			C133.68,36.6,161.08,73.52,161.08,119.07"/>
		<path class="st0" d="M84.77,108.77l4.57-2.54c0,0-20.94-13.99-37.31-2.33C52.03,103.9,72.97,99.81,84.77,108.77"/>
		<path class="st0" d="M70.68,65.93c0,0,18.66,55.14,86.57,32.42c0,0,25.37,126.54-20.15,180.27c0,0,60.72-31.6,61.94-126.12
			c0.9-70.15-19.35-130.97-83.53-145.15C51.33-6.83-3.94,88.32,5.76,157.72c9.7,69.4,26.12,107.46,57.46,120.89
			C63.22,278.62,15.46,97.27,70.68,65.93"/>
		<path class="st2" d="M97.08,140.28c0,0-9.79,8.67,3.64,12.59C100.72,152.87,94,148.95,97.08,140.28"/>
		<path class="st3" d="M84.77,122.09c0,0-4.2-14.55-28.54-6.72C56.22,115.37,57.62,131.6,84.77,122.09"/>
		<path class="st0" d="M78.47,119.07c0,3.61-3.57,6.54-7.97,6.54c-4.4,0-7.97-2.93-7.97-6.54c0-3.61,3.57-6.54,7.97-6.54
			C74.9,112.52,78.47,115.45,78.47,119.07"/>
		<path class="st3" d="M75.25,117.36c0,0.94-1.02,1.71-2.28,1.71c-1.26,0-2.29-0.76-2.29-1.71c0-0.94,1.02-1.71,2.29-1.71
			C74.23,115.65,75.25,116.41,75.25,117.36"/>
		<path class="st4" d="M84.77,122.09c0,0,0-18.91-30.78-9.03l-1.96,2.6C52.03,115.65,80.29,108.1,84.77,122.09"/>
		<path class="st0" d="M120.08,112.48l-4.57-2.54c0,0,20.94-13.99,37.31-2.33C152.82,107.61,131.88,103.52,120.08,112.48"/>
		<path class="st3" d="M120.08,125.8c0,0,4.2-14.55,28.54-6.72C148.63,119.08,147.23,135.31,120.08,125.8"/>
		<path class="st0" d="M126.39,122.78c0,3.61,3.57,6.54,7.97,6.54c4.4,0,7.97-2.93,7.97-6.54s-3.57-6.54-7.97-6.54
			C129.95,116.23,126.39,119.16,126.39,122.78"/>
		<path class="st3" d="M129.6,121.07c0,0.94,1.02,1.71,2.28,1.71c1.26,0,2.29-0.77,2.29-1.71c0-0.94-1.02-1.71-2.29-1.71
			C130.62,119.36,129.6,120.13,129.6,121.07"/>
		<path class="st4" d="M120.08,125.8c0,0,0-18.91,30.78-9.03l1.96,2.6C152.82,119.36,124.56,111.81,120.08,125.8"/>
		<path class="st5" d="M97.18,80.11c0,0,16.98,30.22,48.88,15.11C146.06,95.22,114.34,99.14,97.18,80.11"/>
		<path class="st5" d="M120.08,82.91c0,0,37.73,22.39,52.28,0C172.36,82.91,156.8,96.34,120.08,82.91"/>
		<path class="st5" d="M39.86,102.97c0,0-21.41,131.06,16.36,164.08C56.22,267.05,29.48,175.75,39.86,102.97"/>
		<path class="st5" d="M169,161.02c0,0,5.7,80.85-16.18,101.56C152.82,262.57,193.63,246.96,169,161.02"/>
		<path class="st2" d="M70.68,191.55c0,0,13.91,8.49,23.13,8.89c9.22,0.4,28.13-3.01,29.48-6.36c0,0-0.93,18.67,5.25,31.29
			c0,0-42.6,11.1-58.98-17.28L70.68,191.55z"/>
		<path class="st3" d="M84.75,165.31l29.07,2.03c0,0,1.63,0.86-3.78,5.42C104.64,177.31,89.68,179.61,84.75,165.31"/>
		<path class="st6" d="M84.75,165.31c0,0,7.15-0.71,10.37-3.67c2.4-2.21,4.39,2.16,5.53,2.35c1.14,0.19,2.99-1.21,4.61-1.98
			c1.62-0.78,3.4,2.02,4.73,2.89c4.16,2.74,4.16,2.74,5,2.67C115.83,167.5,95.79,169.73,84.75,165.31"/>
		<path class="st6" d="M84.75,165.31c0,0,14,17.38,30.23,2.26c0,0-4.28,14.41-17.81,12.45C83.65,178.06,86.28,167.39,84.75,165.31"
			/>
		<path class="st2" d="M176.9,253.65c0,0,21.02,3.33,14.67,20.49C191.58,274.14,188.17,261.66,176.9,253.65"/>
	</g>
</g>
</svg>
